<svg width="255" height="255" viewBox="0 0 255 255" fill="none" xmlns="http://www.w3.org/2000/svg">
<path d="M2.42011 35.4202C2.42011 17.1948 17.1947 2.42017 35.4201 2.42017H219.42C237.646 2.42017 252.42 17.1948 252.42 35.4202V219.42C252.42 237.646 237.646 252.42 219.42 252.42H35.4201C17.1947 252.42 2.42011 237.646 2.42011 219.42V35.4202Z" fill="#120F0D"/>
<path d="M2.42011 35.4202C2.42011 17.1948 17.1947 2.42017 35.4201 2.42017H219.42C237.646 2.42017 252.42 17.1948 252.42 35.4202V219.42C252.42 237.646 237.646 252.42 219.42 252.42H35.4201C17.1947 252.42 2.42011 237.646 2.42011 219.42V35.4202Z" stroke="#FFC95E" stroke-width="4.84023" stroke-miterlimit="10"/>
<path d="M54.4201 58.4202H139.472V102.521C153.908 103.749 168.121 105.647 182.11 108.103C182.334 119.937 183.117 131.772 184.46 143.383C186.474 161.805 189.832 179.892 194.42 197.42C176.626 192.954 158.273 189.605 139.584 187.707C128.169 186.59 116.53 185.921 104.892 185.809C102.318 171.853 100.303 157.674 99.0724 143.272H54.532V58.4202H54.4201Z" fill="#FFD16D"/>
</svg>
